<svg width="16" height="16" viewBox="0 0 16 16" fill="none" xmlns="http://www.w3.org/2000/svg">
<g id="Icons" clip-path="url(#clip0_1_688)">
<path id="Vector" d="M9.4533 0.00250546C10.3212 0.00250546 11.1888 0.00438175 12.0568 3.75461e-06C12.1425 -0.000308959 12.1603 0.0187666 12.16 0.111955C12.156 1.01195 12.1575 1.91162 12.1575 2.81161C12.0735 3.05459 11.9926 3.11557 11.7188 3.11995C11.2493 3.12745 10.7795 3.12214 10.31 3.13527C9.89229 3.14684 9.63367 3.36136 9.55974 3.7435C9.53615 3.86483 9.52435 3.99054 9.5232 4.11438C9.51889 4.57188 9.5209 5.02938 9.5209 5.48688C9.5209 5.65137 9.59809 5.73372 9.75248 5.73392C10.3946 5.73392 11.037 5.73299 11.6791 5.73455C11.9345 5.73518 12.0467 5.84869 12.0697 6.12263C12.0737 6.16922 12.0735 6.21613 12.0735 6.26304C12.0735 7.01167 12.0735 7.76062 12.072 8.50926C12.072 8.59181 12.0651 8.67562 12.0525 8.75724C12.0283 8.91329 11.9397 9.00772 11.7964 9.03212C11.7116 9.0465 11.6247 9.05119 11.539 9.05151C10.9495 9.05307 10.3601 9.05213 9.7706 9.05244C9.60452 9.05244 9.52138 9.14063 9.52119 9.317C9.52119 11.3865 9.52119 13.4558 9.52119 15.5253C9.52119 15.884 9.41993 15.9947 9.09514 15.995C8.37134 15.9953 7.64755 15.9809 6.92433 16C6.41514 16.0135 6.37429 15.8305 6.37458 15.4024C6.37631 13.3901 6.37544 11.3781 6.37544 9.36578C6.37544 9.1571 6.27706 9.05276 6.08029 9.05276C5.58663 9.05276 5.09298 9.05526 4.59933 9.05057C4.32431 9.04807 4.24491 8.98646 4.16062 8.74254V6.02725C4.25066 5.79021 4.32373 5.73549 4.56308 5.73517C5.10449 5.73424 5.64618 5.73518 6.18759 5.73455C6.36279 5.73455 6.37429 5.72235 6.37487 5.52941C6.37602 5.14978 6.37458 4.77045 6.37544 4.39082C6.37688 3.83982 6.38264 3.2885 6.51094 2.75001C6.77416 1.6455 7.34808 0.815874 8.32129 0.335858C8.6829 0.157299 9.06666 0.0750551 9.45387 0.00344361L9.4533 0.00250546Z" fill="white"/>
</g>
<defs>
<clipPath id="clip0_1_688">
<rect width="16" height="16" fill="white"/>
</clipPath>
</defs>
</svg>
