<svg width="16" height="16" viewBox="0 0 16 16" fill="none" xmlns="http://www.w3.org/2000/svg">
<g id="Icons" clip-path="url(#clip0_1_690)">
<path id="Vector" d="M15.8943 3.73823C15.8534 3.15761 15.7142 2.59466 15.427 2.08369C14.886 1.12223 14.0175 0.638098 12.9545 0.463131C12.1836 0.336408 11.4031 0.339805 10.6257 0.326895C9.80738 0.313306 8.9887 0.323838 8.17001 0.323838C6.94812 0.324177 5.72589 0.306851 4.50469 0.358151C4.00461 0.379215 3.50759 0.417606 3.01843 0.533797C2.31845 0.70027 1.72457 1.0322 1.24427 1.57646C0.782054 2.10034 0.571924 2.72411 0.460378 3.39102C0.343033 4.09122 0.341328 4.80128 0.333141 5.50692C0.313356 7.19339 0.31745 8.88021 0.335188 10.5667C0.342351 11.2387 0.352244 11.9141 0.457649 12.5813C0.555892 13.2044 0.748283 13.7929 1.14091 14.2987C1.61984 14.9164 2.26456 15.2745 3.01468 15.46C3.76616 15.6458 4.53675 15.6512 5.30154 15.658C7.52359 15.6774 9.74666 15.7073 11.9684 15.6275C12.5698 15.6057 13.166 15.5327 13.7412 15.3234C14.4132 15.0788 14.947 14.666 15.3284 14.0714C15.6709 13.5374 15.8295 12.9354 15.8919 12.3078C15.9752 11.4677 15.983 10.6234 15.9874 9.78154C15.998 7.76688 16.0359 5.75119 15.8943 3.73891V3.73823ZM11.3288 8.06653C11.3032 9.73873 9.85241 11.1391 8.12566 11.1092C6.31603 11.0776 4.98259 9.65583 4.9901 8.00435C5.00272 6.24382 6.42723 4.84986 8.21367 4.88418C9.97282 4.91781 11.3557 6.33521 11.3291 8.06653H11.3288ZM13.2564 4.12859C12.6056 4.12757 12.1031 3.61423 12.1069 2.95445C12.1103 2.32661 12.6237 1.83534 13.2745 1.83704C13.9264 1.83908 14.4449 2.34631 14.4411 2.97925C14.4377 3.62272 13.9151 4.12961 13.2564 4.12859Z" fill="white"/>
</g>
<defs>
<clipPath id="clip0_1_690">
<rect width="16" height="16" fill="white"/>
</clipPath>
</defs>
</svg>
