<svg width="16" height="16" viewBox="0 0 16 16" fill="none" xmlns="http://www.w3.org/2000/svg">
<g id="Icons">
<path id="Vector" d="M10.5389 1.59998C10.7995 1.59998 11.06 1.59998 11.3206 1.59998C11.3398 1.60538 11.3585 1.6135 11.3781 1.6162C12.0649 1.71265 12.6582 2.00199 13.1543 2.48363C13.2366 2.56325 13.3155 2.56205 13.4134 2.53981C13.9977 2.40551 14.5532 2.19729 15.0782 1.90825C15.1231 1.88361 15.1773 1.82382 15.224 1.86678C15.2685 1.90795 15.2179 1.97044 15.1993 2.01882C14.9703 2.60802 14.5932 3.08275 14.0794 3.45081C14.0504 3.47154 14.0101 3.48266 13.9989 3.53494C14.145 3.5079 14.2824 3.48326 14.4194 3.45742C14.8544 3.37539 15.2649 3.21525 15.68 3.06862V3.12872C15.6589 3.15005 15.6345 3.16868 15.6176 3.19271C15.2249 3.74766 14.7631 4.23681 14.214 4.64063C14.1212 4.70884 14.1227 4.79807 14.1248 4.89392C14.1514 6.04047 13.9547 7.15007 13.5559 8.22392C12.9854 9.75927 12.0935 11.0765 10.8187 12.1146C8.81237 13.7488 6.49243 14.2962 3.95171 14.0057C2.85108 13.8798 1.81522 13.5285 0.841096 13.0015C0.663984 12.9057 0.493498 12.7978 0.32 12.6954C0.323614 12.6809 0.326928 12.6665 0.330542 12.6521C1.99112 12.793 3.5017 12.4081 4.85294 11.4097C4.7927 11.3592 4.74089 11.361 4.69269 11.3547C3.47941 11.1994 2.62487 10.5564 2.10528 9.46061C2.06402 9.37318 1.97486 9.26471 2.036 9.18689C2.08811 9.12049 2.21402 9.18148 2.30679 9.1905C2.63662 9.22175 2.96133 9.1905 3.32188 9.11929C3.26164 9.09585 3.23935 9.08504 3.21585 9.07873C2.78813 8.96455 2.40408 8.76445 2.06402 8.48412C1.32876 7.87779 0.944111 7.09269 0.886278 6.14624C0.876639 5.9894 0.902845 5.97137 1.04381 6.03957C1.20677 6.11829 1.37424 6.18379 1.54744 6.23427C1.76491 6.29767 1.98661 6.34184 2.24535 6.34634C2.19504 6.30398 2.16974 6.28114 2.14293 6.26011C0.932062 5.31456 0.570909 3.69689 1.2646 2.32799C1.35436 2.15072 1.36219 2.14922 1.49051 2.29885C2.66132 3.66444 4.10774 4.60638 5.8388 5.10965C6.43159 5.28181 7.03612 5.39298 7.65361 5.42694C7.81686 5.43595 7.83162 5.4068 7.81114 5.24335C7.77951 4.99097 7.76204 4.73918 7.78795 4.48259C7.89187 3.4454 8.38404 2.64618 9.25214 2.0738C9.64311 1.81601 10.0817 1.6817 10.5389 1.59998Z" fill="white"/>
</g>
</svg>
