<svg width="16" height="16" viewBox="0 0 16 16" fill="none" xmlns="http://www.w3.org/2000/svg">
<g id="Icons">
<path id="Vector" d="M15.9 4.57004C15.9 3.16004 14.86 2.03004 13.58 2.03004C11.85 1.95004 10.08 1.92004 8.28 1.92004H7.72C5.92 1.92004 4.15 1.95004 2.42 2.03004C1.14 2.03004 0.11 3.17004 0.11 4.58004C0.03 5.69004 0 6.80004 0 7.91004C0 9.02004 0.03 10.14 0.11 11.25C0.11 12.66 1.14 13.8 2.42 13.8C4.24 13.88 6.1 13.92 8 13.92C9.9 13.92 11.76 13.89 13.58 13.8C14.86 13.8 15.89 12.66 15.89 11.25C15.96 10.13 16 9.02004 16 7.91004C16 6.80004 15.97 5.68004 15.9 4.57004ZM6.47 10.98V4.84004L11 7.91004L6.47 10.98Z" fill="white"/>
</g>
</svg>
